<?xml version="1.0" encoding="UTF-8"?>
<svg id="Layer_1" xmlns="http://www.w3.org/2000/svg" version="1.1" viewBox="0 0 25 28">
  <!-- Generator: Adobe Illustrator 29.7.0, SVG Export Plug-In . SVG Version: 2.1.1 Build 138)  -->
  <defs>
    <style>
      .st0 {
        fill: #fff;
        fill-rule: evenodd;
      }
    </style>
  </defs>
  <path class="st0" d="M18.26,16.29c-.3-.16-1.78-.96-2.06-1.08-.28-.11-.48-.17-.7.13-.22.3-.83.97-1.02,1.17-.19.2-.37.22-.67.05-.3-.16-1.28-.53-2.41-1.61-.88-.85-1.46-1.87-1.63-2.19-.17-.31,0-.47.16-.62.14-.13.32-.35.48-.52.16-.17.22-.3.33-.5.11-.2.07-.38,0-.54-.07-.16-.63-1.69-.86-2.31-.23-.62-.49-.53-.67-.54-.18,0-.38-.04-.59-.05-.21,0-.54.06-.83.35-.29.3-1.11,1.01-1.17,2.52-.06,1.51.99,3.01,1.13,3.22.15.21,1.99,3.48,5.06,4.83,3.07,1.35,3.09.94,3.65.91.56-.03,1.84-.67,2.13-1.38.28-.71.31-1.32.23-1.45-.07-.13-.27-.22-.57-.38h0ZM12.62,23.56c-2.03,0-3.92-.61-5.5-1.65l-3.84,1.23,1.25-3.71c-1.2-1.65-1.9-3.67-1.9-5.86C2.62,8.04,7.11,3.55,12.62,3.55s10,4.49,10,10-4.49,10-10,10h0ZM12.62,1.54C5.99,1.54.61,6.92.61,13.56c0,2.27.63,4.39,1.72,6.2L.16,26.21l6.65-2.13c1.72.95,3.7,1.49,5.81,1.49,6.64,0,12.02-5.38,12.02-12.02S19.26,1.54,12.62,1.54h0Z"/>
</svg>